<?xml version="1.0" encoding="UTF-8"?>
<svg id="Layer_1" data-name="Layer 1" xmlns="http://www.w3.org/2000/svg" viewBox="0 0 3630.65 3313.42">
  <defs>
    <style>
      .cls-1 {
        fill: #fff;
      }
    </style>
  </defs>
  <g>
    <path class="cls-1" d="m2683.48,507.77v308.9c-5.63-19.8-16.95-31.38-33.95-34.75l-2.55-3.4c-13.57-46.97-39.02-77.8-76.35-92.5l-162.1-50.1c-56.57-48.1-242.98-76.1-559.25-84-10.77-.57-21.8-.85-33.1-.85-11.9,0-23.5.28-34.8.85-316.27,7.9-502.68,35.9-559.25,84l-162.1,50.1c-37.33,14.7-62.8,45.53-76.4,92.5l-2.5,3.4c-17,3.37-28.32,14.95-33.95,34.75v-308.9c-.57-50.33-16.13-89.93-46.7-118.8l-58.55-51.75c-1.7-1.13-3.68-2.27-5.95-3.4-43.57-27.73-82.32-20.67-116.25,21.2-24.9,46.4-22.63,91.1,6.8,134.1,19.8,13.57,29.13,41.57,28,84l-2.55,521.1-205.4-22.95c-94.47-9.6-140,25.48-136.6,105.25.57,1.7.85,3.68.85,5.95l-4.25,275.8c2.27,39.6,21.22,65.07,56.85,76.4l-41.6-5.1c-26,108.6,7.95,181.58,101.85,218.95v313.15l-28-.85c-27.73,3.97-42.17,21.5-43.3,52.6v112.05c2.83,10.17,8.5,15.25,17,15.25-13.03,5.67-22.93,14.43-29.7,26.3-39.03,3.97-59.4,36.22-61.1,96.75l-5.1,143.45,55.15,59.4-71.3-1.7-5.05,100.1-42.45,62.8v585.6h3011v-585.6l-42.45-62.8-5.1-100.1-71.25,1.7,55.15-59.4-5.1-143.45c-1.7-60.53-22.07-92.78-61.1-96.75-6.8-11.87-16.7-20.63-29.7-26.3,8.5,0,14.15-5.08,16.95-15.25v-112.05c-1.1-31.1-15.52-48.63-43.25-52.6l-28,.85v-313.15c93.9-37.37,127.85-110.35,101.85-218.95l-41.6,5.1c35.63-11.33,54.58-36.8,56.85-76.4l-4.25-275.8c0-2.27.28-4.25.85-5.95,3.4-79.77-42.15-114.85-136.65-105.25l-205.35,22.95-2.55-521.1c-1.13-42.43,8.2-70.43,28-84,29.43-43,31.7-87.7,6.8-134.1-33.93-41.87-72.68-48.93-116.25-21.2-2.27,1.13-4.25,2.27-5.95,3.4l-58.55,51.75c-30.57,28.87-46.13,68.47-46.7,118.8m123.05,17.85l-20.35,40.7v538.9c-7.37-.57-15.28-1.98-23.75-4.25-.57-40.73-10.47-68.45-29.7-83.15v-486.25c0-54.9,16.97-95.93,50.9-123.1,34.5-30.53,61.65-32.5,81.45-5.9,17.57,22.63,15.03,45.53-7.6,68.7-19.8,18.13-29.42,43.32-28.85,75.55l5.9,547.4c-8.47,5.07-17.8,8.45-28,10.15v-578.75m-274.1,215.55l6.8,2.55c33.37,14.7,52.88,47.23,58.55,97.6l-153.6-.85,99.3-17c3.97-32.8-11.32-54.02-45.85-63.65l-109.45-26.3-71.3,112.85h-1003.1l-71.3-112.85-109.45,26.3c-34.53,9.63-49.82,30.85-45.85,63.65l99.3,17-153.6.85c5.67-50.37,25.18-82.9,58.55-97.6l6.8-2.55c46.97-18.1,103.53-31.12,169.7-39.05l47.55,101-21.2-108.65c46.37-37.9,208.73-58.55,487.1-61.95h67.9c278.93,3.97,441.3,24.62,487.1,61.95l-21.2,108.65,47.5-101c66.2,7.93,122.78,20.95,169.75,39.05m28,120.5c58.27.57,93.07,12.73,104.4,36.5l38.2,123.05c-19.23-18.1-64.78-26.58-136.65-25.45l-804.5,6.75-697.6-6.75c-71.87-1.13-117.42,7.35-136.65,25.45l38.2-123.05c11.3-23.77,46.1-35.93,104.4-36.5h1490.2m47.55,281.75l60.25-53.45c19.23,105.8,32.25,220.65,39.05,344.55,0,31.1-4.82,52.32-14.45,63.65l-51.75-56.85c-52.07-52.07-118.83-75.83-200.3-71.3l-442.15,7.65c-5.1-16.43-22.35-25.22-51.75-26.35l-84.05,1.7-1.7-181.6,746.85-28m298.7,27.15l39.9-27.15,113.7-5.95c-22.63,6.8-32.82,28.02-30.55,63.65l2.55,281.75c-14.13-9.6-43.83-14.68-89.1-15.25l-4.25-253.75c-1.7-28.87-12.45-43.3-32.25-43.3m-173.95,21.2l38.15-11,91.7-39.05,39-4.25-84,39.9c-21.5,12.43-37.62,17.52-48.35,15.25l151.9,279.25h-25.45l-136.65-259.7-1.7-10.2-24.6-10.2m150.2,44.15l1.7,92.5,21.2,66.2-72.15-133.25v-65.35c33.4-1.7,49.82,11.6,49.25,39.9m210.45-93.35c56.03-2.27,81.78,13.85,77.25,48.35l8.45,272.45c-.57,27.7-24.6,43.53-72.1,47.5,26.03-9.6,39.05-26.85,39.05-51.75l-5.95-252.9c-1.7-26.03-11.32-38.77-28.85-38.2l-7.65,262.25-10.2-287.7m-40.75,421.8l2.55,22.05c-57.13-20.93-141.98-25.47-254.55-13.6l-.85-29.7,12.7,9.35c27.73-6.23,56.58-7.93,86.55-5.1l-2.55-25.45-82.3-6.8c134.67-18.67,214.15-2.25,238.45,49.25m38.2-15.3l59.4,1.7c14.73,74.67-8.17,119.37-68.7,134.1,29.97-33.4,33.07-78.67,9.3-135.8m9.35,558.4c22.63,0,33.95,11.32,33.95,33.95v57.7c0,22.63-11.32,33.95-33.95,33.95h-61.1c-22.63,0-33.95-11.32-33.95-33.95v-57.7c0-22.63,11.32-33.95,33.95-33.95h61.1m-242.7-635.6l-61.1,7.6-11.9-147.65,73,140.05m5.95,169.7l-1.7-44.95-23.8-11.9c93.93-5.1,153.35-1.7,178.25,10.2l-.85,56c-24.33-6.8-51.5-10.77-81.5-11.9l.85-35.65c-7.9-3.37-17.8-3.93-29.7-1.7v37.35c-13.57.57-27.42,1.42-41.55,2.55m-35.65,33.95l-.85,18.65c138.6-4.5,210.45,6.82,215.55,33.95l-1.7,337.8-24.6.85c-22.63-2.27-35.93,21.48-39.9,71.25l.85-393.75c14.13-1.7,27.15-.57,39.05,3.4-11.33-12.47-41.6-18.13-90.8-17l1.7,460.85-118.85-1.7v-532.1c90.53-9.07,164.37-5.4,221.5,11,12.47,5.67,17.28,15.28,14.45,28.85-15.83-21.5-87.97-28.85-216.4-22.05m-202-144.25l49.25,56.85-53.5-12.75c-21.5-3.4-33.67,3.4-36.5,20.4,17.57,3.37,29.73,11.28,36.5,23.75l.85,186.7-44.1,22.05v-213.85c-2.83-33.93-13.02-60.23-30.55-78.9,6.2,16.97,9.02,48.37,8.45,94.2l4.25,1066.7h-1490.2l4.25-1066.7c-.57-45.83,2.25-77.23,8.45-94.2-17.53,18.67-27.72,44.97-30.55,78.9v213.85l-44.1-22.05.85-186.7c6.77-12.47,18.92-20.38,36.45-23.75-2.8-17-14.95-23.8-36.45-20.4l-53.5,12.75,49.25-56.85c54.87-65.07,119.93-99.87,195.2-104.4l455.7-1.7c1.7-8.5,6.52-13.87,14.45-16.1h290.2c7.93,2.23,12.75,7.6,14.45,16.1l455.7,1.7c75.27,4.53,140.33,39.33,195.2,104.4m84,357.25c-1.13-41.87-4.8-69.58-11-83.15l65.35-17.85c24.9,22.07,31.68,73,20.35,152.8l-8.5-32.25-39-7.65-1.7-38.2h-12.75l-12.75,26.3m230.85,620.35c-11.3,0-16.95-5.65-16.95-16.95v-95.05c0-11.3,5.65-16.95,16.95-16.95h174.8c11.33,0,17,5.65,17,16.95v95.05c0,11.3-5.67,16.95-17,16.95h-174.8m-52.6-112v95.05c0,11.3-5.67,16.95-17,16.95h-174.8c-11.33,0-17-5.65-17-16.95v-95.05c0-11.3,5.67-16.95,17-16.95h174.8c11.33,0,17,5.65,17,16.95m-245.25-182.45c1.67,45.27,26.83,68.47,75.5,69.6l387,.85c23.2,2.27,36.22,14.7,39.05,37.3l-471.85-1.7c-42.43-5.07-52.33-40.42-29.7-106.05m-959-863.1c-29.4,1.13-46.65,9.92-51.75,26.35l-442.15-7.65c-81.47-4.53-148.23,19.23-200.3,71.3l-51.75,56.85c-9.63-11.33-14.45-32.55-14.45-63.65,6.8-123.9,19.82-238.75,39.05-344.55l60.25,53.45,746.8,28-1.7,181.6-84-1.7M773.18,471.27c-22.63-23.17-25.18-46.07-7.65-68.7,19.8-26.6,46.97-24.63,81.5,5.9,33.93,27.17,50.9,68.2,50.9,123.1v486.25c-19.23,14.7-29.13,42.42-29.7,83.15-8.47,2.27-16.38,3.68-23.75,4.25v-538.9l-20.35-40.7v578.75c-10.2-1.7-19.55-5.08-28.05-10.15l5.95-547.4c.57-32.23-9.05-57.42-28.85-75.55m-44.1,666.2l39,4.25,91.65,39.05,38.2,11-24.6,10.2-1.7,10.2-136.65,259.7h-25.45l151.9-279.25c-10.73,2.27-26.85-2.82-48.35-15.25l-84-39.9m-45,5.95l39.9,27.15c-19.8,0-30.55,14.43-32.25,43.3l-4.25,253.75c-45.27.57-74.97,5.65-89.1,15.25l2.55-281.75c2.27-35.63-7.92-56.85-30.55-63.65l113.7,5.95m-224.05,47.5c-4.53-34.5,21.22-50.62,77.25-48.35l-10.2,287.7-7.65-262.25c-17.53-.57-27.15,12.17-28.85,38.2l-5.95,252.9c0,24.9,13.02,42.15,39.05,51.75-47.53-3.97-71.58-19.8-72.15-47.5l8.5-272.45m286,137.5l1.7-92.5c-.57-28.3,15.83-41.6,49.2-39.9v65.35l-72.1,133.25,21.2-66.2m72.15,224.05l12.7-9.35-.85,29.7c-112.57-11.87-197.43-7.33-254.6,13.6l2.55-22.05c24.33-51.5,103.83-67.92,238.5-49.25l-82.35,6.8-2.55,25.45c30-2.83,58.87-1.13,86.6,5.1m-14.45,141.7l-.85-18.65c-128.43-6.8-200.57.55-216.4,22.05-2.83-13.57,1.98-23.18,14.45-28.85,57.13-16.4,130.97-20.07,221.5-11v532.1l-118.85,1.7,1.7-460.85c-49.2-1.13-79.47,4.53-90.8,17,11.9-3.97,24.92-5.1,39.05-3.4l.85,393.75c-3.97-49.77-17.27-73.52-39.9-71.25l-24.6-.85-1.7-337.8c5.1-27.13,76.95-38.45,215.55-33.95m-323.35-143.4l59.45-1.7c-23.77,57.13-20.67,102.4,9.3,135.8-60.53-14.73-83.45-59.43-68.75-134.1m215.6,52.6l.85,35.65c-30,1.13-57.17,5.1-81.5,11.9l-.85-56c24.9-11.9,84.32-15.3,178.25-10.2l-23.8,11.9-1.7,44.95c-14.13-1.13-27.98-1.98-41.55-2.55v-37.35c-11.9-2.23-21.8-1.67-29.7,1.7m-199.45,538.05c0-22.63,11.32-33.95,33.95-33.95h61.1c22.63,0,33.95,11.32,33.95,33.95v57.7c0,22.63-11.32,33.95-33.95,33.95h-61.1c-22.63,0-33.95-11.32-33.95-33.95v-57.7m424.3-252.9l-12.7-26.3h-12.75l-1.7,38.2-39,7.65-8.5,32.25c-11.33-79.8-4.55-130.73,20.35-152.8l65.35,17.85c-6.23,13.57-9.92,41.28-11.05,83.15m-86.55-409.05l-61.1-7.6,73-140.05-11.9,147.65m153.6,734.95c22.63,65.63,12.73,100.98-29.7,106.05l-471.85,1.7c2.83-22.6,15.85-35.03,39.05-37.3l387-.85c48.63-1.13,73.8-24.33,75.5-69.6m-36.5,182.45v95.05c0,11.3-5.65,16.95-16.95,16.95h-174.8c-11.33,0-17-5.65-17-16.95v-95.05c0-11.3,5.67-16.95,17-16.95h174.8c11.3,0,16.95,5.65,16.95,16.95m-436.2,112c-11.3,0-16.95-5.65-16.95-16.95v-95.05c0-11.3,5.65-16.95,16.95-16.95h174.85c11.3,0,16.95,5.65,16.95,16.95v95.05c0,11.3-5.65,16.95-16.95,16.95h-174.85m-100.1,251.2h2800.5v492.25H415.08v-492.25m2258.9-76.75v-118.15h387.2c72.29,23.52,107.61,62.9,105.95,118.15h-493.15m-1712.6-118.15v118.15h-493.15c-1.67-55.23,33.65-94.62,105.95-118.15h387.2m-427.5-142v59.4h95.9c-41.3-4.5-73.27-24.3-95.9-59.4m246.95,0v59.4h95.9c-41.3-4.5-73.27-24.3-95.9-59.4m105.25-578.75l-15.3-1.7-5.1-26.3c-7.33,20.93-9.32,45.82-5.95,74.65l22.95-4.25,3.4-42.4m1963.75,638.15v-59.4c-22.63,35.1-54.6,54.9-95.9,59.4h95.9m246.95,0v-59.4c-22.63,35.1-54.6,54.9-95.9,59.4h95.9m-683.15-930.1c-.57-.57-1.13-.85-1.7-.85-14.7-7.93-32.52-12.47-53.45-13.6l-418.4-.85-17.8,10.2h-213.9l-17.8-10.2-418.4.85c-20.93,1.13-38.75,5.67-53.45,13.6-.57,0-1.13.28-1.7.85-29.43,16.97-44.72,48.08-45.85,93.35l9.35,968.3h1269.6l9.3-968.3c-1.13-45.27-16.4-76.38-45.8-93.35m0,67.05v975.95l-36.5-.85v-1019.25c23.2,9.07,35.37,23.78,36.5,44.15m-83.15-54.3h-5.1v1029.4h-36.5v-1029.4h36.5v-1.7l5.1,1.7m-211.35,0h36.5v1029.4h-36.5v-1029.4m88.25,0h36.5v1029.4h-36.5v-1029.4m-235.05,0h13.6v1029.4h-36.5v-1016.7l22.9-12.7m65.35,0h36.5v1029.4h-36.5v-1029.4m-392.95,0h13.6l22.9,11v1018.4h-36.5v-1029.4m-169.7,0h36.5v1029.4h-36.5v-1029.4m81.45,0h36.5v1029.4h-36.5v-1029.4m-251.2-1.7v1.7h36.5v1029.4h-36.5v-1029.4h-5.1l5.1-1.7m81.5,1.7h36.45v1029.4h-36.45v-1029.4m-169.75,54.3c1.13-20.37,13.3-35.08,36.5-44.15v1019.25l-36.5-.85v-974.25m656.8-40.75h36.5v1015.85h-36.5v-1015.85m-76.75,0h34.8v1015.85h-34.8v-1015.85m-79.7,0h36.5v1015.85h-36.5v-1015.85Z"/>
    <g>
      <path class="cls-1" d="m3593.77,1449.63c-23.86-116.62-59.47-231.34-105.84-340.96-45.51-107.6-101.83-211.36-167.4-308.42-64.92-96.09-139.47-186.45-221.58-268.56-31.31-31.31-63.83-61.52-97.4-90.51-3.97,31.28-15.89,61.59-35.54,90.29l-7.92,11.58-5.39,3.69c-.86,3.91-1.94,11.53-1.6,24.36l.02.82,1.19,242.7c49.98,56.72,95.79,117.19,136.95,180.94,8.09-.56,15.97-.84,23.53-.84,59.48,0,106.14,17.22,138.69,51.18,31.66,33.04,46.51,78.06,44.13,133.81l-.45,10.52-.2.59,4.15,269.01-.16,2.72c-.54,9.41-1.72,18.5-3.51,27.23,23.05,104.9,35.21,213.83,35.21,325.54,0,141.94-19.62,279.37-56.28,409.75,9.33,8.29,17.6,18.01,24.57,29.05,17.63,27.91,26.82,62.99,28.1,107.22l4.52,127.15,12.91-.31,7.75,152.13,43.61,64.52v4.03c34.29-60.55,65.1-123.04,92.11-186.89,46.37-109.62,81.98-224.34,105.84-340.96,24.47-119.59,36.88-242.62,36.88-365.69s-12.41-246.11-36.88-365.69Z"/>
      <path class="cls-1" d="m278.43,2640.34l7.68-152.15,12.99.31,4.52-127.15c1.28-44.24,10.47-79.31,28.1-107.22,6.97-11.04,15.24-20.76,24.57-29.05-36.66-130.38-56.28-267.81-56.28-409.75,0-111.72,12.16-220.65,35.21-325.54-1.79-8.73-2.97-17.82-3.51-27.23l-.16-2.72,4.15-269.01-.2-.59-.45-10.53c-2.38-55.76,12.47-100.79,44.13-133.83,32.53-33.95,79.18-51.17,138.65-51.17,7.57,0,15.46.29,23.56.85,41.16-63.75,86.97-124.22,136.95-180.94l1.19-242.69.02-.82c.34-12.83-.74-20.45-1.6-24.36l-5.39-3.69-7.92-11.58c-19.65-28.7-31.56-59.01-35.54-90.29-33.57,29-66.09,59.2-97.4,90.51-82.11,82.11-156.66,172.47-221.58,268.56-65.57,97.05-121.89,200.82-167.4,308.42-46.37,109.62-81.98,224.34-105.84,340.96C12.41,1569.22,0,1692.26,0,1815.33s12.41,246.11,36.88,365.69c23.86,116.62,59.47,231.34,105.84,340.96,27,63.85,57.82,126.34,92.11,186.89v-4.03l43.6-64.5Z"/>
      <path class="cls-1" d="m883.53,274.81l4.25,2.83,63.3,55.95.9.85c23.29,22,41.09,48.39,52.91,78.44,11.09,28.21,16.91,59.86,17.29,94.05v.84s0,16.82,0,16.82c230.85-142.38,502.58-224.59,793.15-224.59s562.3,82.21,793.15,224.59v-17.67c.39-34.19,6.21-65.83,17.3-94.04,11.81-30.05,29.61-56.44,52.91-78.44l.9-.85,63.3-55.95,4.25-2.83c3.26-2.17,6.66-4.2,10.32-6.17,1.46-.9,2.93-1.76,4.4-2.61-76.82-47.01-157.21-88.35-239.86-123.31-109.62-46.37-224.34-81.98-340.96-105.84C2061.43,12.41,1938.4,0,1815.33,0s-246.11,12.41-365.69,36.88c-116.62,23.86-231.34,59.47-340.96,105.84-82.65,34.96-163.04,76.3-239.86,123.31,1.47.85,2.93,1.71,4.39,2.61,3.66,1.96,7.06,4,10.32,6.17Z"/>
    </g>
  </g>
  <g>
    <path class="cls-1" d="m837.5,3112.54h-55.86v-224.02h-84.18v-56.05h224.02v56.05h-83.98v224.02Z"/>
    <path class="cls-1" d="m980.46,3112.54h-53.32v-209.18h12.89l17.58,24.8c8.59-7.81,18.36-13.83,29.3-18.07,10.94-4.23,22.27-6.35,33.98-6.35h47.07v53.12h-47.07c-5.6,0-10.87,1.04-15.82,3.12-4.95,2.08-9.25,4.95-12.89,8.59-3.65,3.65-6.51,7.94-8.59,12.89-2.08,4.95-3.12,10.22-3.12,15.82v115.23Z"/>
    <path class="cls-1" d="m1291.4,3112.54h-12.89l-20.7-28.71c-5.08,4.56-10.45,8.82-16.11,12.79-5.66,3.97-11.62,7.42-17.87,10.35s-12.67,5.24-19.24,6.93c-6.58,1.69-13.25,2.54-20.02,2.54-14.72,0-28.55-2.47-41.5-7.42-12.96-4.95-24.29-12.14-33.98-21.58-9.7-9.44-17.35-21-22.95-34.67-5.6-13.67-8.4-29.23-8.4-46.68,0-16.28,2.8-31.22,8.4-44.82,5.6-13.6,13.25-25.29,22.95-35.06,9.7-9.77,21.03-17.35,33.98-22.75,12.95-5.4,26.79-8.11,41.5-8.11,6.77,0,13.48.85,20.12,2.54,6.64,1.69,13.09,4.04,19.34,7.03,6.25,3,12.21,6.51,17.87,10.55,5.66,4.04,10.97,8.4,15.92,13.09l20.7-24.8h12.89v208.79Zm-53.71-106.45c0-7.29-1.4-14.36-4.2-21.19-2.8-6.84-6.61-12.89-11.43-18.16-4.82-5.27-10.45-9.5-16.89-12.7-6.45-3.19-13.31-4.79-20.61-4.79s-14.16,1.24-20.61,3.71c-6.45,2.47-12.05,6.12-16.8,10.94-4.75,4.82-8.5,10.78-11.23,17.87-2.73,7.1-4.1,15.2-4.1,24.32s1.37,17.22,4.1,24.32c2.73,7.1,6.48,13.06,11.23,17.87,4.75,4.82,10.35,8.47,16.8,10.94,6.45,2.47,13.31,3.71,20.61,3.71s14.16-1.59,20.61-4.79c6.45-3.19,12.08-7.42,16.89-12.7,4.82-5.27,8.62-11.33,11.43-18.16,2.8-6.84,4.2-13.9,4.2-21.19Z"/>
    <path class="cls-1" d="m1385.35,3112.54h-53.32v-209.18h12.89l17.58,20.31c8.59-7.81,18.33-13.83,29.2-18.07,10.87-4.23,22.23-6.35,34.08-6.35,12.76,0,24.8,2.44,36.13,7.32s21.22,11.59,29.69,20.12c8.46,8.53,15.14,18.49,20.02,29.88,4.88,11.4,7.32,23.54,7.32,36.43v119.53h-53.32v-119.53c0-5.47-1.04-10.64-3.12-15.53-2.08-4.88-4.95-9.15-8.59-12.79-3.65-3.64-7.88-6.51-12.7-8.59-4.82-2.08-9.96-3.12-15.43-3.12s-10.87,1.04-15.82,3.12c-4.95,2.08-9.25,4.95-12.89,8.59-3.65,3.65-6.51,7.91-8.59,12.79-2.08,4.88-3.12,10.06-3.12,15.53v119.53Z"/>
    <path class="cls-1" d="m1671.67,3112.54h-121.88v-53.12h121.88c3.64,0,6.77-1.3,9.38-3.91,2.6-2.6,3.91-5.73,3.91-9.38s-1.3-6.25-3.91-7.42c-2.61-1.17-5.73-1.76-9.38-1.76h-55.47c-9.25,0-17.9-1.76-25.98-5.27-8.08-3.52-15.11-8.3-21.09-14.36-5.99-6.05-10.71-13.12-14.16-21.19-3.45-8.07-5.18-16.73-5.18-25.98s1.72-17.9,5.18-25.98c3.45-8.07,8.17-15.1,14.16-21.09,5.99-5.99,13.02-10.71,21.09-14.16,8.07-3.45,16.73-5.18,25.98-5.18h108.01v53.12h-108.01c-3.65,0-6.77,1.3-9.38,3.91-2.61,2.61-3.91,5.73-3.91,9.38s1.3,7,3.91,9.67c2.6,2.67,5.73,4,9.38,4h55.47c9.11,0,17.71,1.53,25.78,4.59,8.07,3.06,15.1,7.32,21.09,12.79,5.99,5.47,10.74,12.04,14.26,19.73,3.52,7.68,5.27,16.08,5.27,25.2s-1.76,17.87-5.27,25.88-8.27,15.04-14.26,21.09c-5.99,6.05-13.02,10.81-21.09,14.26-8.08,3.45-16.67,5.18-25.78,5.18Z"/>
    <path class="cls-1" d="m1820.11,3192.23h-53.71v-288.87h12.89l21.29,25.2c4.82-4.56,10.09-8.85,15.82-12.89,5.73-4.03,11.69-7.52,17.87-10.45,6.18-2.93,12.6-5.24,19.24-6.93,6.64-1.69,13.35-2.54,20.12-2.54,14.71,0,28.55,2.64,41.5,7.91,12.96,5.27,24.28,12.73,33.98,22.36,9.7,9.64,17.35,21.26,22.95,34.86,5.6,13.61,8.4,28.68,8.4,45.21s-2.8,32.65-8.4,46.39c-5.6,13.74-13.25,25.39-22.95,34.96-9.7,9.57-21.03,16.89-33.98,21.97-12.96,5.08-26.79,7.62-41.5,7.62-4.69,0-9.34-.52-13.96-1.56-4.62-1.04-9.18-2.44-13.67-4.2s-8.92-3.74-13.28-5.96c-4.36-2.21-8.56-4.49-12.6-6.84v93.75Zm106.84-186.13c0-8.85-1.4-16.8-4.2-23.83-2.8-7.03-6.61-12.99-11.43-17.87-4.82-4.88-10.48-8.62-16.99-11.23-6.51-2.6-13.41-3.91-20.7-3.91s-14.16,1.3-20.61,3.91c-6.45,2.61-12.08,6.35-16.89,11.23-4.82,4.88-8.63,10.84-11.43,17.87-2.8,7.03-4.2,14.97-4.2,23.83s1.4,16.21,4.2,23.24c2.8,7.03,6.61,13.02,11.43,17.97,4.82,4.95,10.45,8.79,16.89,11.52s13.31,4.1,20.61,4.1,14.19-1.37,20.7-4.1c6.51-2.73,12.17-6.57,16.99-11.52,4.82-4.95,8.62-10.94,11.43-17.97,2.8-7.03,4.2-14.78,4.2-23.24Z"/>
    <path class="cls-1" d="m2212.1,3006.09c0,15.62-2.8,30.18-8.4,43.65-5.6,13.48-13.22,25.13-22.85,34.96-9.64,9.83-20.93,17.58-33.89,23.24-12.96,5.66-26.86,8.5-41.7,8.5s-28.55-2.83-41.5-8.5c-12.96-5.66-24.29-13.41-33.98-23.24-9.7-9.83-17.35-21.48-22.95-34.96-5.6-13.48-8.4-28.03-8.4-43.65s2.8-30.6,8.4-44.14c5.6-13.54,13.25-25.23,22.95-35.06,9.7-9.83,21.03-17.54,33.98-23.14,12.96-5.6,26.79-8.4,41.5-8.4s28.74,2.64,41.7,7.91c12.96,5.27,24.25,12.76,33.89,22.46,9.63,9.7,17.25,21.36,22.85,34.96,5.6,13.61,8.4,28.74,8.4,45.41Zm-53.71,0c0-8.59-1.4-16.37-4.2-23.34-2.8-6.96-6.61-12.96-11.43-17.97-4.82-5.01-10.45-8.85-16.89-11.52-6.45-2.67-13.31-4-20.61-4s-14.16,1.34-20.61,4c-6.45,2.67-12.04,6.51-16.8,11.52-4.75,5.01-8.5,11-11.23,17.97-2.73,6.97-4.1,14.75-4.1,23.34,0,8.08,1.37,15.56,4.1,22.46,2.73,6.9,6.48,12.89,11.23,17.97,4.75,5.08,10.35,9.08,16.8,12.01s13.31,4.39,20.61,4.39,14.16-1.37,20.61-4.1,12.08-6.57,16.89-11.52c4.82-4.95,8.62-10.94,11.43-17.97,2.8-7.03,4.2-14.78,4.2-23.24Z"/>
    <path class="cls-1" d="m2294.92,3112.54h-53.32v-209.18h12.89l17.58,24.8c8.59-7.81,18.36-13.83,29.3-18.07,10.94-4.23,22.27-6.35,33.98-6.35h47.07v53.12h-47.07c-5.6,0-10.87,1.04-15.82,3.12-4.95,2.08-9.25,4.95-12.89,8.59s-6.51,7.94-8.59,12.89c-2.08,4.95-3.12,10.22-3.12,15.82v115.23Z"/>
    <path class="cls-1" d="m2512.1,3112.54c-12.89,0-25-2.44-36.33-7.32s-21.26-11.59-29.79-20.12c-8.53-8.53-15.23-18.46-20.12-29.79s-7.32-23.44-7.32-36.33v-62.11h-25.98v-53.12h25.98v-83.59h53.12v83.59h80.86v53.12h-80.86v62.11c0,5.6,1.04,10.84,3.12,15.72,2.08,4.88,4.95,9.15,8.59,12.79,3.64,3.65,7.94,6.54,12.89,8.69,4.95,2.15,10.22,3.22,15.82,3.22h40.43v53.12h-40.43Z"/>
    <path class="cls-1" d="m2665.62,3061.37c2.08.65,4.17,1.07,6.25,1.27,2.08.2,4.17.29,6.25.29,5.21,0,10.22-.71,15.04-2.15,4.82-1.43,9.34-3.48,13.57-6.15,4.23-2.67,8.01-5.92,11.33-9.77,3.32-3.84,6.02-8.11,8.11-12.79l39.06,39.26c-4.95,7.03-10.64,13.35-17.09,18.95-6.45,5.6-13.41,10.35-20.9,14.26-7.49,3.91-15.37,6.87-23.63,8.89-8.27,2.02-16.77,3.03-25.49,3.03-14.72,0-28.55-2.73-41.5-8.2-12.96-5.47-24.29-13.09-33.98-22.85-9.7-9.77-17.35-21.39-22.95-34.86-5.6-13.48-8.4-28.29-8.4-44.43s2.8-31.64,8.4-45.31c5.6-13.67,13.25-25.32,22.95-34.96,9.7-9.63,21.03-17.12,33.98-22.46,12.96-5.34,26.79-8.01,41.5-8.01,8.72,0,17.25,1.04,25.59,3.12,8.33,2.08,16.24,5.08,23.73,8.98,7.49,3.91,14.48,8.69,21,14.36,6.51,5.66,12.24,12.01,17.19,19.04l-100,120.51Zm27.34-109.96c-2.47-.91-4.92-1.5-7.32-1.76-2.41-.26-4.92-.39-7.52-.39-7.29,0-14.16,1.34-20.61,4-6.45,2.67-12.04,6.48-16.8,11.43-4.75,4.95-8.5,10.91-11.23,17.87-2.73,6.97-4.1,14.81-4.1,23.54,0,1.95.1,4.17.29,6.64.2,2.47.52,4.98.98,7.52.46,2.54,1.01,4.98,1.66,7.32.65,2.34,1.5,4.43,2.54,6.25l62.11-82.42Z"/>
    <path class="cls-1" d="m2845.7,3112.54h-53.32v-209.18h12.89l17.58,24.8c8.59-7.81,18.36-13.83,29.3-18.07,10.94-4.23,22.27-6.35,33.98-6.35h47.07v53.12h-47.07c-5.6,0-10.87,1.04-15.82,3.12-4.95,2.08-9.25,4.95-12.89,8.59s-6.51,7.94-8.59,12.89c-2.08,4.95-3.12,10.22-3.12,15.82v115.23Z"/>
  </g>
</svg>